<svg width="800" height="251" viewBox="0 0 800 251" fill="none" xmlns="http://www.w3.org/2000/svg">
<g clip-path="url(#clip0_408_162)">
<path d="M140.6 98.2002C140.6 95.1002 139.6 92.7002 137.3 91.3002C135.9 90.5002 133.1 90.2002 130.7 90.2002H113.6V124.7H132.2C136.5 124.7 139.9 125.7 140.2 129.5H140.6V98.2002Z" fill="white"/>
<path d="M140.6 98.2002C140.6 95.1002 139.6 92.7002 137.3 91.3002C135.9 90.5002 133.1 90.2002 130.7 90.2002H113.6V124.7H132.2C136.5 124.7 139.9 125.7 140.2 129.5H140.6V98.2002Z" stroke="#001C54" stroke-width="1.057" stroke-miterlimit="3.8637"/>
<path d="M140.6 98.2002C140.6 95.1002 141.6 92.7002 143.9 91.3002C145.3 90.5002 148.7 90.2002 151 90.2002H168.2V124.7H149.5C145.2 124.7 141.2 125.7 141 129.5H140.6V98.2002Z" fill="white"/>
<path d="M140.6 98.2002C140.6 95.1002 141.6 92.7002 143.9 91.3002C145.3 90.5002 148.7 90.2002 151 90.2002H168.2V124.7H149.5C145.2 124.7 141.2 125.7 141 129.5H140.6V98.2002Z" stroke="#001C54" stroke-width="1.057" stroke-miterlimit="3.8637"/>
<path d="M171.8 92.8001V129.3H145.4L145.1 130.1C144.6 131.2 143.8 132.3 140.9 132.3C138 132.3 137.2 131.2 136.7 130.1L136.4 129.3H110V92.8001H107.6V93.9001L105.3 93.2001C105 92.3001 104.2 91.6001 103.2 91.6001C102 91.6001 101 92.6001 101 93.8001C101 95.0001 102 96.0001 103.2 96.0001C103.7 96.0001 104.2 95.8001 104.6 95.5001L107.6 96.4001V99.3001L105.3 98.9001C105 98.1001 104.2 97.6001 103.3 97.6001C102.1 97.6001 101.1 98.6001 101.1 99.8001C101.1 101 102.1 102 103.3 102C103.9 102 104.5 101.7 104.9 101.3L107.6 101.8V104.8L105.3 104.7C104.9 104.1 104.2 103.6 103.4 103.6C102.2 103.6 101.2 104.6 101.2 105.8C101.2 107 102.2 108 103.4 108C104.1 108 104.8 107.6 105.2 107.1L107.6 107.2V110.4L105.2 110.5C104.8 109.9 104.2 109.6 103.4 109.6C102.2 109.6 101.2 110.6 101.2 111.8C101.2 113 102.2 114 103.4 114C104.2 114 104.9 113.6 105.2 113L107.5 112.9V115.9L104.9 116.3C104.5 115.9 103.9 115.6 103.3 115.6C102.1 115.6 101.1 116.6 101.1 117.8C101.1 119 102.1 120 103.3 120C104.2 120 105 119.5 105.3 118.7L107.5 118.3V121.2L104.6 122.1C104.2 121.8 103.7 121.6 103.2 121.6C102 121.6 101 122.6 101 123.8C101 125 102 126 103.2 126C104.2 126 105 125.3 105.3 124.4L107.5 123.7V126.5L104.3 127.9C104 127.7 103.6 127.5 103.1 127.5C101.9 127.5 100.9 128.5 100.9 129.7C100.9 130.9 101.9 131.9 103.1 131.9C104.2 131.9 105.1 131.1 105.2 130.1L107.4 129.1V131.7H135C136.1 133.6 138 134.6 140.9 134.6C143.8 134.6 145.7 133.6 146.8 131.7H174.1V92.8001H171.8Z" fill="#001C54"/>
<path d="M122.9 80.7002C117.4 80.7002 112.9 81.6002 112.9 82.6002C112.9 83.7002 117.4 84.5002 122.9 84.5002C128.4 84.5002 132.9 83.6002 132.9 82.6002C132.9 81.5002 128.5 80.7002 122.9 80.7002Z" fill="#001C54"/>
<path d="M136.7 68.7001L130.9 72.8001L130.8 73.2001L132.2 73.8001C132.5 73.9001 132.5 74.2001 132.3 74.3001L128.7 77.4001H128.4L125.8 73.6001C125.6 73.4001 125.7 73.1001 126 73.1001L127.7 72.8001V72.4001L123.2 66.1001H122.5L118 72.4001V72.8001L119.7 73.1001C120 73.2001 120.1 73.4001 119.9 73.6001L117.3 77.4001H117L113.6 74.3001C113.5 74.2001 113.5 74.0001 113.7 73.8001L115.1 73.2001L115 72.8001L109 68.7001L108.5 68.9001L112 79.7001C113.8 78.9001 117.9 78.3001 122.7 78.3001C127.5 78.3001 131.6 78.9001 133.4 79.7001L136.9 68.9001L136.7 68.7001Z" fill="#001C54"/>
<path d="M140.9 152.9C135.4 152.9 130.9 153.8 130.9 154.8C130.9 155.9 135.4 156.7 140.9 156.7C146.4 156.7 150.9 155.8 150.9 154.8C150.8 153.8 146.4 152.9 140.9 152.9Z" fill="#001C54"/>
<path d="M154.6 140.9L148.8 145V145.4L150.2 146C150.5 146.1 150.5 146.4 150.3 146.5L146.7 149.6H146.4L143.8 145.8C143.6 145.6 143.7 145.3 144 145.3L145.7 145V144.6L141.2 138.3H140.5L136 144.6V145L137.7 145.3C138 145.4 138.1 145.6 137.9 145.8L135.3 149.6H135L131.6 146.5C131.5 146.4 131.5 146.1 131.7 146L133.1 145.4V145L127.1 140.9L126.6 141.1L130.1 151.9C131.9 151.1 136 150.5 140.8 150.5C145.6 150.5 149.7 151.1 151.5 151.9L155 141.1L154.6 140.9Z" fill="#001C54"/>
<path d="M158.7 80.7002C153.2 80.7002 148.7 81.6002 148.7 82.6002C148.7 83.7002 153.2 84.5002 158.7 84.5002C164.2 84.5002 168.7 83.6002 168.7 82.6002C168.7 81.5002 164.2 80.7002 158.7 80.7002Z" fill="#001C54"/>
<path d="M172.5 68.7001L166.7 72.8001L166.6 73.2001L168 73.8001C168.3 73.9001 168.3 74.2001 168.1 74.3001L164.5 77.4001H164.2L161.6 73.6001C161.4 73.4001 161.5 73.1001 161.8 73.1001L163.5 72.8001V72.4001L159 66.1001H158.3L153.8 72.4001V72.8001L155.5 73.1001C155.8 73.2001 155.9 73.4001 155.7 73.6001L153.1 77.4001H152.8L149.4 74.3001C149.3 74.2001 149.3 74.0001 149.5 73.8001L150.9 73.2001L150.8 72.8001L144.8 68.7001L144.3 68.9001L147.8 79.7001C149.6 78.9001 153.7 78.3001 158.5 78.3001C163.3 78.3001 167.4 78.9001 169.2 79.7001L172.7 68.9001L172.5 68.7001Z" fill="#001C54"/>
<path d="M118.4 95.7998C119.3 95.7998 120.1 95.9998 120.6 96.4998C121 96.7998 121.3 97.3998 121.3 98.0998C121.3 99.9998 119.9 100.8 118.1 100.8H116.1V100.5C116.7 100.5 116.7 100.4 116.7 99.5998V96.9998C116.7 96.1998 116.6 96.0998 116.1 96.0998V95.7998H118.4ZM118.1 99.4998C118.1 100.2 118.3 100.3 118.6 100.3C119.3 100.3 119.9 99.5998 119.9 98.1998C119.9 96.5998 119.1 96.0998 118.4 96.0998C118.2 96.0998 118.1 96.0998 118.1 96.1998C118.1 96.1998 118.1 96.3998 118.1 96.5998V99.4998Z" fill="#001C54"/>
<path d="M127.1 98.2001C127.1 99.8001 126 100.8 124.5 100.8C123 100.8 122 99.7001 122 98.3001C122 97.1001 122.8 95.6001 124.6 95.6001C126 95.6001 127.1 96.7001 127.1 98.2001ZM123.4 98.0001C123.4 99.4001 123.9 100.4 124.7 100.4C125.4 100.4 125.7 99.8001 125.7 98.4001C125.7 96.9001 125.2 96.0001 124.5 96.0001C123.9 96.0001 123.4 96.7001 123.4 98.0001Z" fill="#001C54"/>
<path d="M133.8 95.7998V96.0998C133.2 96.1998 133.2 96.1998 133.2 96.9998L133.3 99.4998C133.3 100.3 133.3 100.4 133.9 100.4V100.7H131.5V100.4C132.1 100.3 132.1 100.3 132.1 99.4998V96.7998L130.6 100.6H130.2L128.8 97.0998L128.7 98.7998C128.7 99.4998 128.7 99.7998 128.7 100.1C128.7 100.4 128.9 100.5 129.4 100.5V100.8H127.5V100.5C127.9 100.5 128 100.4 128.1 100.1C128.1 99.8998 128.2 99.4998 128.2 98.7998L128.3 97.2998C128.4 96.2998 128.3 96.2998 127.7 96.1998V95.8998H129.5L130.8 98.8998L132 95.8998H133.8V95.7998Z" fill="#001C54"/>
<path d="M136.3 99.4998C136.3 100.3 136.4 100.4 136.9 100.4V100.7H134.4V100.4C134.9 100.4 135 100.3 135 99.4998V96.9998C135 96.1998 134.9 96.0998 134.4 96.0998V95.7998H136.9V96.0998C136.4 96.0998 136.3 96.1998 136.3 96.9998V99.4998Z" fill="#001C54"/>
<path d="M124 109.9H123.3L120.5 106.3V107.7C120.5 108.5 120.5 108.9 120.6 109.2C120.6 109.5 120.8 109.6 121.3 109.6V109.9H119.4V109.6C119.7 109.6 119.9 109.5 120 109.2C120 109 120.1 108.5 120.1 107.7V106.3C120.1 105.7 120.1 105.6 119.9 105.4C119.8 105.2 119.6 105.2 119.3 105.2V104.9H121L123.5 108.1V107.1C123.5 106.3 123.5 105.9 123.4 105.6C123.4 105.3 123.2 105.2 122.7 105.2V104.9H124.6V105.2C124.2 105.2 124 105.3 124 105.6C124 105.8 123.9 106.3 123.9 107.1V109.9H124Z" fill="#001C54"/>
<path d="M127.1 109.9C126.6 108.5 125.9 106.7 125.6 105.9C125.3 105.3 125.2 105.2 124.8 105.2V104.9H127.3V105.2H127C126.7 105.2 126.7 105.3 126.8 105.6C126.9 106 127.5 107.5 127.8 108.3C128 107.7 128.5 106.2 128.6 105.8C128.8 105.3 128.7 105.3 128.4 105.2H128.2V104.9H130V105.2C129.6 105.3 129.5 105.3 129.2 106C129.2 106.1 128.2 108.4 127.7 109.9H127.1Z" fill="#001C54"/>
<path d="M130.5 108.3C130.7 108.7 131.1 109.6 131.9 109.6C132.3 109.6 132.6 109.3 132.6 108.8C132.6 108.4 132.3 108.1 131.8 107.9L131.7 107.8C131.1 107.5 130.4 107.1 130.4 106.3C130.4 105.4 131 104.7 132.2 104.7C132.4 104.7 132.7 104.7 132.9 104.8C133.1 104.8 133.2 104.9 133.3 104.9C133.3 105.2 133.4 105.6 133.5 106.1L133.2 106.2C133 105.7 132.8 105.2 132.2 105.2C131.8 105.2 131.5 105.5 131.5 105.9C131.5 106.3 131.8 106.5 132.3 106.7L132.5 106.8C133.2 107.1 133.8 107.5 133.8 108.4C133.8 109.3 133 110 131.9 110C131.6 110 131.3 109.9 131.1 109.9C130.9 109.8 130.7 109.8 130.6 109.7C130.5 109.3 130.4 108.9 130.3 108.4L130.5 108.3Z" fill="#001C54"/>
<path d="M120.6 117.7C120.6 118.5 120.7 118.6 121.2 118.6V118.9H118.7V118.6C119.2 118.6 119.3 118.5 119.3 117.7V115.2C119.3 114.4 119.2 114.3 118.7 114.3V114H121.2V114.3C120.7 114.3 120.6 114.4 120.6 115.2V117.7Z" fill="#001C54"/>
<path d="M123.6 117.8C123.6 118.2 123.6 118.4 123.8 118.5C123.9 118.6 124.1 118.6 124.3 118.6C124.5 118.6 124.9 118.6 125 118.4C125.1 118.3 125.3 118.1 125.4 117.6L125.7 117.7C125.7 118 125.5 118.8 125.4 119H121.6V118.7C122.2 118.7 122.2 118.6 122.2 117.8V115.3C122.2 114.5 122.1 114.4 121.6 114.4V114H124.1V114.3C123.6 114.3 123.5 114.4 123.5 115.2V117.8H123.6Z" fill="#001C54"/>
<path d="M127.9 117.8C127.9 118.2 127.9 118.4 128.1 118.5C128.2 118.6 128.4 118.6 128.6 118.6C128.8 118.6 129.2 118.6 129.3 118.4C129.4 118.3 129.6 118.1 129.7 117.6L130 117.7C130 118 129.8 118.8 129.7 119H126V118.7C126.6 118.7 126.6 118.6 126.6 117.8V115.3C126.6 114.5 126.5 114.4 126 114.4V114H128.5V114.3C128 114.3 127.9 114.4 127.9 115.2V117.8Z" fill="#001C54"/>
<path d="M131.5 119C131 117.6 130.3 115.8 130 115C129.7 114.4 129.6 114.3 129.2 114.3V114H131.7V114.3H131.4C131.1 114.3 131.1 114.4 131.2 114.7C131.3 115.1 131.9 116.6 132.2 117.4C132.4 116.8 132.9 115.3 133 114.9C133.2 114.4 133.1 114.4 132.8 114.3H132.6V114H134.4V114.3C134 114.4 133.9 114.4 133.6 115.1C133.6 115.2 132.6 117.5 132.1 119H131.5Z" fill="#001C54"/>
<path d="M151.1 95.7998V96.0998C150.5 96.1998 150.5 96.1998 150.5 96.9998L150.6 99.4998C150.6 100.3 150.6 100.4 151.2 100.4V100.7H148.8V100.4C149.4 100.3 149.4 100.3 149.4 99.4998V96.7998L147.9 100.6H147.5L146.1 97.0998L146 98.7998C146 99.4998 146 99.7998 146 100.1C146 100.4 146.2 100.5 146.7 100.5V100.8H144.8V100.5C145.2 100.5 145.3 100.4 145.4 100.1C145.4 99.8998 145.5 99.4998 145.5 98.7998L145.6 97.2998C145.7 96.2998 145.6 96.2998 145 96.1998V95.8998H146.8L148.1 98.8998L149.3 95.8998H151.1V95.7998Z" fill="#001C54"/>
<path d="M153.6 99.4998C153.6 100.3 153.7 100.4 154.2 100.4V100.7H151.7V100.4C152.2 100.4 152.3 100.3 152.3 99.4998V96.9998C152.3 96.1998 152.2 96.0998 151.7 96.0998V95.7998H154.2V96.0998C153.7 96.0998 153.6 96.1998 153.6 96.9998V99.4998Z" fill="#001C54"/>
<path d="M159.2 100.8H158.5L155.7 97.1998V98.5998C155.7 99.3998 155.7 99.7998 155.8 100.1C155.8 100.4 156 100.5 156.5 100.5V100.8H154.6V100.5C154.9 100.5 155.1 100.4 155.2 100.1C155.2 99.8998 155.3 99.4998 155.3 98.5998V97.1998C155.3 96.5998 155.3 96.4998 155.1 96.2998C155 96.0998 154.8 96.0998 154.5 96.0998V95.7998H156.2L158.7 98.9998V97.9998C158.7 97.1998 158.7 96.7998 158.6 96.4998C158.6 96.1998 158.4 96.0998 157.8 96.0998V95.7998H159.7V96.0998C159.3 96.0998 159.1 96.1998 159.1 96.4998C159.1 96.6998 159 97.1998 159 97.9998V100.8H159.2Z" fill="#001C54"/>
<path d="M162.4 100.4H162.6C162.9 100.4 162.9 100.3 162.8 100L162.5 99.2001H161.2L161 99.9001C160.9 100.2 160.9 100.3 161.2 100.3H161.4V100.6H159.6V100.3C160 100.2 160.1 100.2 160.4 99.6001L161.9 95.7001L162.4 95.6001L162.9 97.0001C163.2 97.9001 163.6 98.8001 163.8 99.6001C164 100.3 164.2 100.3 164.6 100.4V100.7H162.2V100.4H162.4ZM161.4 98.8001H162.4L161.9 97.3001L161.4 98.8001Z" fill="#001C54"/>
<path d="M151 108.6C151 109.4 151.1 109.5 151.7 109.5V109.8H149V109.5C149.6 109.5 149.7 109.4 149.7 108.6V105.3H149.6C149.1 105.3 148.9 105.4 148.8 105.5C148.7 105.6 148.6 105.8 148.5 106.2H148.2C148.2 105.6 148.3 105 148.3 104.6H148.5C148.6 104.8 148.7 104.8 148.9 104.8H151.9C152.1 104.8 152.1 104.8 152.3 104.6H152.5C152.5 104.9 152.5 105.6 152.6 106.1H152.3C152.2 105.6 152.1 105.4 152 105.3C151.9 105.2 151.6 105.1 151.3 105.1H151V108.6Z" fill="#001C54"/>
<path d="M155 108.6C155 109.4 155.1 109.5 155.6 109.5V109.8H153.1V109.5C153.6 109.5 153.7 109.4 153.7 108.6V106.1C153.7 105.3 153.6 105.2 153.1 105.2V104.9H155.6V105.2C155.1 105.2 155 105.3 155 106.1V108.6Z" fill="#001C54"/>
<path d="M161.4 107.3C161.4 108.9 160.3 109.9 158.8 109.9C157.3 109.9 156.3 108.8 156.3 107.4C156.3 106.2 157.1 104.7 158.9 104.7C160.3 104.8 161.4 105.8 161.4 107.3ZM157.7 107.2C157.7 108.6 158.2 109.6 159 109.6C159.7 109.6 160 109 160 107.6C160 106.1 159.4 105.2 158.8 105.2C158.1 105.2 157.7 105.8 157.7 107.2Z" fill="#001C54"/>
<path d="M153.3 114V114.3C152.7 114.4 152.7 114.4 152.7 115.2L152.8 117.7C152.8 118.5 152.8 118.6 153.4 118.6V118.9H151V118.6C151.6 118.5 151.6 118.5 151.6 117.7V115L150.1 118.8H149.7L148.3 115.3L148.2 117C148.2 117.7 148.2 118 148.2 118.3C148.2 118.6 148.4 118.7 148.9 118.7V119H147V118.7C147.4 118.7 147.5 118.6 147.6 118.3C147.6 118.1 147.7 117.7 147.7 117L147.8 115.5C147.9 114.5 147.8 114.5 147.2 114.4V114H149L150.3 117L151.5 114H153.3Z" fill="#001C54"/>
<path d="M154.5 115.2C154.5 114.4 154.4 114.3 153.9 114.3V114H157.5C157.5 114.1 157.5 114.7 157.6 115.3H157.3C157.2 114.9 157.1 114.7 157 114.6C156.9 114.5 156.6 114.4 156.2 114.4H156.1C155.8 114.4 155.8 114.4 155.8 114.7V116.2H156.2C156.9 116.2 156.9 116.2 157 115.6H157.3V117.4H157C156.9 116.7 156.9 116.7 156.2 116.7H155.8V117.9C155.8 118.3 155.8 118.5 156 118.6C156.1 118.7 156.3 118.7 156.5 118.7C156.8 118.7 157.1 118.7 157.3 118.5C157.4 118.4 157.6 118.1 157.7 117.7L158 117.8C158 118.2 157.8 119 157.7 119.2H153.8V118.9C154.4 118.8 154.4 118.8 154.4 118V115.2H154.5Z" fill="#001C54"/>
<path d="M160.6 118.7H160.8C161.1 118.7 161.1 118.6 161 118.3L160.7 117.5H159.5L159.3 118.2C159.2 118.5 159.2 118.6 159.5 118.6H159.7V118.9H158V118.6C158.4 118.5 158.5 118.5 158.8 117.9L160.3 114L160.8 113.9L161.3 115.3C161.6 116.2 162 117.1 162.2 117.9C162.4 118.6 162.6 118.6 163 118.6V118.9H160.6V118.7ZM159.7 117H160.7L160.2 115.5L159.7 117Z" fill="#001C54"/>
<path d="M134 180.1C134 181.2 133.1 182.1 132 182.1C130.9 182.1 130 181.2 130 180.1C130 179 130.9 178.1 132 178.1C133.1 178.1 134 179 134 180.1Z" fill="#001C54"/>
<path d="M154.2 183.4C154.2 184.5 153.3 185.4 152.2 185.4C151.1 185.4 150.2 184.5 150.2 183.4C150.2 182.3 151.1 181.4 152.2 181.4C153.3 181.4 154.2 182.3 154.2 183.4Z" fill="#001C54"/>
<path d="M142.8 39.7002C142.8 40.8002 141.9 41.7002 140.8 41.7002C139.7 41.7002 138.8 40.8002 138.8 39.7002C138.8 38.6002 139.7 37.7002 140.8 37.7002C141.9 37.7002 142.8 38.6002 142.8 39.7002Z" fill="#001C54"/>
<path d="M190.1 58.3002C190.1 59.4002 189.1 60.2002 188 60.2002C186.9 60.2002 186 59.2002 186.1 58.1002C186.1 57.0002 187.1 56.2002 188.2 56.2002C189.3 56.3002 190.1 57.2002 190.1 58.3002Z" fill="#001C54"/>
<path d="M90.4002 143.7C91.2002 144.8 91.6002 146 91.5002 147.2C91.5002 148.6 91.0002 149.7 88.5002 151.4L81.3002 156.5L80.0002 154.6C80.0002 154.6 87.4002 149.4 87.5002 149.3C88.8002 148.4 89.3002 147.8 89.3002 146.8C89.3002 146.2 89.1002 145.5 88.6002 144.8C87.9002 143.8 87.0002 143.4 86.1002 143.4C85.4002 143.4 84.6002 143.9 83.2002 144.9L76.5002 149.5L75.2002 147.6L81.6002 143.2C83.4002 141.9 84.8002 141.1 86.1002 141.1C88.1002 141.2 89.5002 142.4 90.4002 143.7Z" fill="#001C54"/>
<path d="M67.3999 129.7L81.0999 124.9L81.7999 127L73.9999 136.5L83.8999 132.6L84.5999 134.6L71.0999 139.8L70.3999 137.7L78.1999 128.2L68.0999 131.7L67.3999 129.7Z" fill="#001C54"/>
<path d="M79.7575 116.651L65.4141 118.781L65.7519 121.056L80.0953 118.926L79.7575 116.651Z" fill="#001C54"/>
<path d="M64.9 101.6L65 99.2002L79.3 105L79.2 107.3L64.5 111.7V109.3L76.4 106L64.9 101.6Z" fill="#001C54"/>
<path d="M78 69.2002C76 69.2002 75 70.4002 73.7 72.7002L72 75.7002L84.7 82.6002L85.8 80.6002L80.5 77.7002L80.8 77.1002C81.7 75.5002 82 75.2002 84.3 75.4002L88.4 75.8002L89.6 73.7002L84.8 73.3002C83.8 73.2002 83.1 73.1002 82.5 73.3002C82.3 73.4002 82.1 73.5002 81.8 73.7002C81.9 73.4002 82 73.2002 82 72.9002C82 72.5002 81.9 72.1002 81.8 71.7002C81.5 70.9002 80.9 70.2002 80 69.7002C79.4 69.4002 78.7 69.2002 78 69.2002ZM75.4 73.6002C76.2 72.1002 76.9 71.5002 77.7 71.5002C78 71.5002 78.5 71.6002 78.9 71.8002C79.4 72.1002 79.9 72.6002 80 73.1002C80.1 73.3002 80.1 73.5002 80.1 73.7002C80.1 74.6002 79.6 75.4002 79.1 76.3002L78.8 76.8002L74.7 74.6002L75.4 73.6002Z" fill="#001C54"/>
<path d="M95.6904 47.3634L93.8594 48.7554L102.635 60.2988L104.466 58.9069L95.6904 47.3634Z" fill="#001C54"/>
<path d="M101.8 43.0998L111.1 38.2998L112 39.9998L108.4 41.8998L114.1 52.9998L112.1 54.0998L106.3 42.9998L102.7 44.8998L101.8 43.0998Z" fill="#001C54"/>
<path d="M125.1 33.9002L127.5 33.2002L125.6 42.9002L127.1 48.4002L124.9 49.0002L123.4 43.6002L116.5 36.4002L118.9 35.7002L123.8 40.8002L125.1 33.9002Z" fill="#001C54"/>
<path d="M169.2 53.6002L176.5 41.2002L183.4 45.3002L182.4 47.0002L177.5 44.1002L175.5 47.5002L180.1 50.2002L179.1 51.9002L174.5 49.2002L171.2 54.8002L169.2 53.6002Z" fill="#001C54"/>
<path d="M206.3 85.9001L211.6 79.6001L212.4 82.0001L208.5 86.5001L214.3 87.8001L215.1 90.2001L207.1 88.3001L201.5 95.0001L200.7 92.6001L204.9 87.6001L198.6 86.2001L197.8 83.8001L206.3 85.9001Z" fill="#001C54"/>
<path d="M202.2 100.1L216.6 98.8999L217.3 106.9L215.3 107L214.8 101.3L210.8 101.7L211.3 107L209.4 107.2L208.9 101.8L202.4 102.3L202.2 100.1Z" fill="#001C54"/>
<path d="M208.6 112.9C206.9 112.9 205.4 113.4 204.2 114.2C202 115.8 201.6 118.1 201.6 119.4C201.6 124.3 206.2 126.2 209.6 126.2C211.3 126.2 212.8 125.7 214 124.9C216.4 123.1 216.6 120.5 216.6 119.6C216.6 115.5 212.6 112.9 208.6 112.9ZM209.7 124C206.9 124 203.6 122.5 203.6 119.6C203.6 118.6 204 117.2 205.2 116.3C206.1 115.7 207.2 115.3 208.4 115.3C209.8 115.3 212.4 115.7 213.8 117.6C214.3 118.2 214.5 119 214.5 119.8C214.5 120.9 214 122.2 212.9 123.1C212.1 123.7 211 124 209.7 124Z" fill="#001C54"/>
<path d="M200.2 64.7998C198.7 64.7998 197.2 65.2998 195.7 66.1998C192.9 67.9998 191.9 70.4998 191.9 72.2998C191.9 73.4998 192.2 74.6998 192.9 75.6998C194.4 78.0998 196.8 78.6998 198.3 78.6998C199.8 78.6998 201.4 78.1998 202.9 77.2998C204.7 76.1998 206.7 74.0998 206.7 71.1998C206.7 69.9998 206.4 68.7998 205.7 67.7998C204.3 65.8998 202.4 64.7998 200.2 64.7998ZM197.9 76.5998C196.6 76.5998 195.4 76.0998 194.6 74.7998C194.2 74.1998 194 73.3998 194 72.6998C194 71.0998 195 69.3998 196.9 68.1998C198.2 67.3998 199.4 66.9998 200.5 66.9998C201.9 66.9998 203 67.5998 203.8 68.7998C204.2 69.4998 204.5 70.2998 204.5 70.9998C204.5 72.5998 203.5 74.1998 201.7 75.2998C200.4 76.1998 199.1 76.5998 197.9 76.5998Z" fill="#001C54"/>
<path d="M160.7 35C157.7 35 155.1 37 154 40.6C153.8 41.4 153.6 42.2 153.6 43C153.6 44.4 153.8 45.6 154.4 46.7C155.7 49.1 158.2 50 160 50C161.1 50 162.1 49.8 163 49.3C165.4 48 167.1 44.9 167.1 41.9C167.1 40.6 166.8 39.4 166.3 38.4C165.2 36.2 163 35 160.7 35ZM160 47.9C159 47.9 157.4 47.4 156.6 45.8C156.2 45.1 156 44.1 156 43.2C156 40.6 157.7 37 160.9 37C162.7 37 164.9 38.3 164.9 41.6C164.9 43.7 163.4 47.9 160 47.9Z" fill="#001C54"/>
<path d="M80.6999 87.5001L82.5999 88.0001L80.3999 96.0001L66.3999 92.1001L68.7999 84.1001L70.6999 84.6001L68.9999 90.4001L72.7999 91.5001L74.2999 86.2001L76.1999 86.7001L74.6999 92.0001L79.0999 93.2001L80.6999 87.5001Z" fill="#001C54"/>
<path d="M84.3 57.3002C86.3 55.0002 88.4 55.2002 88.4 55.2002L88.8 57.1002C88.8 57.1002 87.2 57.1002 86 58.5002C85.5 59.1002 85.2 59.7002 85.2 60.3002C85.2 60.8002 85.4 61.2002 85.8 61.5002C86.8 62.4002 88.5 61.4002 89.6 61.0002C90.4 60.7002 91.6 60.2002 92.8 60.2002C93.7 60.2002 94.6 60.4002 95.4 61.2002C96.4 62.1002 96.8 63.1002 96.8 64.3002C96.8 65.5002 96.3 66.6002 95.4 67.7002C93.6 69.8002 91.1 70.0002 91.1 70.0002L90.6 68.1002C92.1 67.8002 93.2 67.2002 93.8 66.4002C94.3 65.8002 94.6 65.1002 94.6 64.6002C94.6 64.1002 94.4 63.5002 93.9 63.1002C93.5 62.8002 93.1 62.7002 92.6 62.7002C91.7 62.7002 90.6 63.2002 89.6 63.6002C87.8 64.3002 86 64.9002 84.3 63.4002C83.5 62.6002 83 61.7002 83 60.6002C83 59.5002 83.4 58.3002 84.3 57.3002Z" fill="#001C54"/>
<path d="M198.4 131.6L203.9 134.1L203.6 134.7C202.9 136.4 202.6 136.7 200.3 136.7H196.2L195.2 138.9H200C201 138.9 201.7 138.9 202.3 138.7C202.5 138.6 202.7 138.5 202.9 138.3C202.9 138.4 202.8 138.5 202.8 138.7C202.8 139.2 202.9 139.8 203.1 140.2C203.8 141.7 205.5 142.5 206.8 142.5C209.1 142.5 210 141.1 211.1 138.6C211.1 138.5 212.4 135.5 212.4 135.5L199.3 129.6L198.4 131.6ZM206.9 140.2C206.2 140.2 205.1 139.8 204.7 138.7C204.6 138.4 204.6 138.1 204.6 137.9C204.6 137.1 205 136.3 205.4 135.4L205.6 134.8L209.8 136.7L209.3 137.8C208.5 139.7 208 140.2 206.9 140.2Z" fill="#001C54"/>
<path d="M190.8 145.3C189.3 147.2 188.2 148.9 188.2 151C188.2 152.8 189 154.9 191.1 156.6C192.5 157.7 194.1 158.3 195.7 158.3C197.7 158.3 199.3 157.7 201.8 154.6L204.1 151.7L192.8 142.7L190.8 145.3ZM195.9 156.2C194.8 156.2 193.7 155.8 192.5 154.9C191.4 154 190.2 152.6 190.2 150.8C190.2 149.5 190.9 148.3 191.9 147L192.9 145.8L201.2 152.4L200.6 153.2C199 155.1 197.9 156.2 195.9 156.2Z" fill="#001C54"/>
<path d="M223.7 108.8C223.7 63.2001 186.5 26.1001 140.9 26.1001C95.2001 26.1001 58.1001 63.2001 58.1001 108.8C58.1001 136.2 71.6001 161.6 94.2001 177.1C96.4001 185.4 104 191.5 113 191.5C115.4 191.5 117.8 191 120 190.2C123 191.2 126.2 192 129.3 192.7C128.4 195.2 127.1 197.6 125.9 199.7C125.9 199.7 125.9 199.7 126 199.7H125.9L127.6 201.4C128 201.2 128.5 201 129.1 201C130.8 201 132.2 202.4 132.2 204.1C132.2 205.8 130.8 207.2 129.1 207.2C127.6 207.2 126.3 206.2 125.6 205.2C125.6 205.2 125.2 206.6 125.2 208.4C125.2 214.3 131.7 221.1 140.7 224C149.7 221.2 156.2 214.4 156.2 208.4C156.2 206.4 155.8 205.2 155.8 205.2C155.1 206 154 207.2 152.3 207.2C150.6 207.2 149.2 205.8 149.2 204.1C149.2 202.4 150.6 201 152.3 201C152.9 201 153.4 201.2 153.9 201.5L155.6 199.8H155.7C154.8 197.5 154.1 195.5 153.6 193.5C168.5 191.5 181.1 185.2 191 174.7C211.8 158.8 223.7 134.8 223.7 108.8ZM113 189.2C103.6 189.2 95.9001 181.5 95.9001 172.1C95.9001 169.1 96.7001 166.4 98.0001 163.9C98.9001 164.7 99.8001 165.5 100.8 166.4C100 168.2 99.5001 170.1 99.5001 172.2C99.5001 177.3 102.1 181.6 107 184.5C109.8 186.2 113 187.7 116.4 189C115.3 189.1 114.2 189.2 113 189.2ZM140.9 164.3C137.4 164.3 133.9 164 130.4 163.3C127.1 156.8 120.3 152.6 113 152.6C111.2 152.6 109.5 152.9 107.8 153.3C93.7001 142.9 85.3001 126.2 85.3001 108.7C85.3001 78.1001 110.2 53.2001 140.8 53.2001C171.4 53.2001 196.3 78.1001 196.3 108.7C196.4 139.4 171.5 164.3 140.9 164.3ZM153.2 165.3C151.5 167.7 150.5 171 150.3 174.3C145 172.9 140.3 171.1 136.1 169.2C136.9 167.7 139.2 166.6 140.9 166.6C145.1 166.6 149.2 166.1 153.2 165.3ZM135.6 166.4C134.9 166.9 134.3 167.6 133.9 168.2C131.8 167.2 129.2 165.9 127.4 164.9C129.9 165.5 133.1 166.1 135.6 166.4ZM113 155C118.7 155 124.1 157.9 127.2 162.6C124.5 161.9 121.8 161 119.1 159.9H119C117.2 159 115.2 158.6 113.1 158.6C108.5 158.6 104.5 160.8 102 164.2C101 163.6 99.9001 163 98.9001 162.4C102.1 157.9 107.2 155 113 155ZM152.3 198.6C149.2 198.6 146.7 200.8 146.7 204.1C146.7 207.3 149.2 209.6 152.3 209.6C152.8 209.6 153.2 209.5 153.6 209.4C153 214 147.6 219.1 140.7 221.4C133.9 219.1 128.5 213.9 127.8 209.4C128.2 209.5 128.7 209.6 129.1 209.6C132.4 209.6 134.7 207.3 134.7 204.1C134.7 201.1 132.3 198.7 129.3 198.6C130.2 196.9 131.1 195.1 131.8 193.1C135.6 193.8 139.3 194.1 142.8 194.1C145.7 194.1 148.4 193.9 151.1 193.7C151.5 195.3 152 196.9 152.6 198.6C152.5 198.6 152.4 198.6 152.3 198.6ZM142.8 191.8C131.7 191.8 117.8 188 108.3 182.4C105.4 180.7 102 177.5 102 172.1C102 170.6 102.3 169.2 102.8 168C106.4 170.9 110 173.7 112.3 175C112.8 175.3 113.1 175.4 113.8 175.4C115.3 175.4 116.5 174.2 116.5 172.7C116.5 171.6 115.9 170.6 114.9 170.2C112.9 169.3 108.8 167.6 104.4 165.3C106.5 162.6 109.7 160.8 113.3 160.8C115 160.8 116.6 161.2 118.1 161.9L121.1 163.7C130.8 169.6 155.7 184.8 185.7 176.4C174.2 186.7 160.2 191.8 142.8 191.8ZM189.4 172.8C175.9 177.6 163.4 177.2 152.7 174.8C153.1 170 155 164.9 158.1 163.9C181.7 156.6 198.9 134.6 198.9 108.7C198.9 76.8001 172.9 50.9001 141 50.9001C109 50.9001 83.1001 76.8001 83.1001 108.7C83.1001 126.4 91.4001 143.3 105.3 154.2C102 155.7 99.2001 158 97.1001 160.9C96.0001 160.2 95.0001 159.4 94.1001 158.7L93.6001 159.2C94.2001 160 95.2001 161 96.4001 162.1C94.7001 165 93.7001 168.4 93.7001 172C93.7001 172.6 93.7001 173.1 93.8001 173.7C73.0001 158.6 60.7001 134.5 60.7001 108.8C60.7001 64.5001 96.8001 28.4001 141.1 28.4001C185.4 28.4001 221.5 64.4001 221.5 108.8C221.2 134.2 209.6 157.5 189.4 172.8Z" fill="#001C54"/>
<path d="M327.3 156C327.3 178.1 310.2 194.2 288.9 194.2C267.2 194.2 250.5 178 250.5 156.8C250.5 134.7 267.6 118.6 288.9 118.6C310.6 118.5 327.3 134.8 327.3 156ZM315.1 156.4C315.1 136.3 305.3 122.2 288.9 122.2C271 122.2 262.7 139.1 262.7 156.4C262.7 176.5 272.5 190.5 288.9 190.5C306.8 190.5 315.1 173.6 315.1 156.4Z" fill="#001C54"/>
<path d="M561.8 156C561.8 178.1 544.7 194.2 523.4 194.2C501.7 194.2 485 178 485 156.8C485 134.7 502.1 118.6 523.4 118.6C545.2 118.5 561.8 134.8 561.8 156ZM549.6 156.4C549.6 136.3 539.8 122.2 523.4 122.2C505.5 122.2 497.2 139.1 497.2 156.4C497.2 176.5 507 190.5 523.4 190.5C541.3 190.5 549.6 173.6 549.6 156.4Z" fill="#001C54"/>
<path d="M591.5 156.7H600.6C614.4 156.7 617.5 148 617.5 139.6C617.5 133.3 614.6 127.4 608.1 124.6C604.7 123.2 601.4 123.2 596.9 123.2H591.4V156.7H591.5ZM608.4 168.5C604.1 162.4 602.5 160.2 597.2 160.2H591.5V185C591.5 187 592.3 188 594.6 188.4L602.9 190.2V192.9H570.2V190.2L577.7 188.4C579.9 187.8 580.7 187 580.7 185V127.7C580.7 125.7 579.9 124.9 577.7 124.2L570.2 122.4V119.8H602.1C608.8 119.8 613.5 120.4 617.3 121.8C625.2 124.9 629.7 132.4 629.7 139.5C629.7 148.5 623 156 611.8 158.6V159C614 160 615.3 161.4 623.2 171.8L633.2 185C634.6 187 636.5 188.2 638.7 188.7L646 190.3V193H628.5C626.5 193 625.4 192.4 623.6 189.9L608.4 168.5Z" fill="#001C54"/>
<path d="M465.1 144.8H468.1V169.2H465.1L463.3 161.9C462.7 159.3 461.1 158.2 458.6 158.2H440.9V185C440.9 187 441.7 188 444 188.4L452.3 190.2V192.9H419.6V190.2L427.1 188.4C429.3 187.8 430.2 187 430.2 185V127.7C430.2 125.7 429.4 124.9 427.1 124.3L419.6 122.5V119.8H474.9V138.1H471.8L468.4 127.1C467.6 124.3 466.4 123.2 463.9 123.2H440.9V154.7H458.6C461 154.7 462.5 153.7 463.3 151L465.1 144.8Z" fill="#001C54"/>
<path d="M651.8 192.9V190.2L659.3 188.4C661.5 187.8 662.4 187 662.4 185V127.7C662.4 125.7 661.6 124.9 659.3 124.3L651.8 122.5V119.8H686.2C695.5 119.8 702.3 121 707.7 123.5C721.5 129.8 727.8 143.4 727.8 156.8C727.8 169.8 722.9 182 710.5 188.5C704.8 191.6 696.9 193 686.5 193H651.8V192.9ZM673.2 123.2V186.2C673.2 188.9 673.8 189.5 676.5 189.5H685.4C693.9 189.5 700.2 188.3 704.7 185C712.2 179.5 715.7 169.6 715.7 157C715.7 144.6 712.2 132.4 702.1 126.5C697.8 124 692.3 123.2 683.8 123.2H673.2Z" fill="#001C54"/>
<path d="M356 190.3V193H330.2V190.3L336.7 188.7C339.1 188.1 340.8 187.3 342.4 185.4L364.8 157.4L342.4 127.7C341 125.7 339.2 124.7 336.9 124L330.8 122.4V119.7H362.9V122.4L356 123.8C353.6 124.2 354.2 125.2 355.4 126.9L371.9 150.5H372.3L389.2 126.9C390.4 125.3 390.8 124.7 388.6 124.1L382.1 122.5V119.8H407.9V122.5L401.4 124.1C399 124.7 397.3 125.5 395.7 127.3L374.6 153.9L398 185C399.4 187 401.3 188 403.5 188.7L409.6 190.3V193H377.5V190.3L384.4 188.9C386.8 188.5 386.4 187.7 385.2 186L367.3 160.8H366.9L348.8 185.8C347.6 187.4 347.2 188 349.4 188.6L356 190.3Z" fill="#001C54"/>
<path d="M279 85.2999C277 87.2999 273.9 88.6999 269.7 88.6999C266 88.6999 262.6 87.4999 260.3 85.1999C257.1 81.9999 257.3 77.9999 257.3 73.6999V53.3999H261.4V75.2999C261.4 78.0999 261.3 80.7999 263.5 82.8999C265 84.3999 267.3 85.1999 269.9 85.1999C272.5 85.1999 274.5 84.2999 275.8 82.9999C278.2 80.5999 278 77.9999 278 71.7999V53.4999H282.1V70.7999C282.1 77.1999 282.3 81.9999 279 85.2999Z" fill="#001C54"/>
<path d="M315.8 87.9999L299.1 59.5999L299.2 87.9999H295.4V53.3999H299.7L316.4 81.9999L316.3 53.3999H320.1V87.9999H315.8Z" fill="#001C54"/>
<path d="M338.8 53.3999H334.6V88.0999H338.8V53.3999Z" fill="#001C54"/>
<path d="M364.7 87.9999H359.9L347.9 53.3999H352.3L362.4 83.9999L372.8 53.3999H376.8L364.7 87.9999Z" fill="#001C54"/>
<path d="M386.3 87.9999V53.3999H405.1V56.7999H390.4V68.2999H404.2V71.6999H390.4V84.4999H405.5V87.9999H386.3Z" fill="#001C54"/>
<path d="M431.9 58.5998C429.9 56.5998 427.3 56.6998 424.5 56.6998H420.7V69.6998H422.1C425.6 69.6998 429.4 69.8998 431.7 67.4998C432.8 66.3998 433.5 64.6998 433.5 62.9998C433.5 60.9998 432.7 59.3998 431.9 58.5998ZM435.7 87.9998L431.7 78.9998C429.2 73.4998 428.1 72.8998 423.1 72.8998H420.7V87.9998H416.6V53.2998H424.1C428.7 53.2998 432.2 53.2998 434.9 55.9998C436.6 57.6998 437.6 59.9998 437.6 62.8998C437.6 65.2998 436.9 67.2998 435.4 68.8998C434.2 70.1998 432.1 71.3998 429.8 71.5998C431 71.6998 432 72.2998 432.7 72.9998C433.6 73.8998 434.3 75.3998 435.3 77.5998L440 87.9998H435.7Z" fill="#001C54"/>
<path d="M484.7 53.3999H480.5V88.0999H484.7V53.3999Z" fill="#001C54"/>
<path d="M508.5 56.7999V87.9999H504.3V56.7999H494V53.3999H518.7V56.7999H508.5Z" fill="#001C54"/>
<path d="M538.7 74.2999V87.9999H534.6V74.2999L523.6 53.3999H528.3L536.9 69.5999L545.2 53.3999H549.7L538.7 74.2999Z" fill="#001C54"/>
<path d="M588.6 56.2998C581.8 56.2998 577.4 61.9998 577.4 70.6998C577.4 79.2998 582.3 85.1998 588.8 85.1998C596 85.1998 600.1 78.9998 600.1 70.3998C600.1 61.8998 595.3 56.2998 588.6 56.2998ZM588.6 88.6998C579.6 88.6998 573.1 81.2998 573.1 70.8998C573.1 60.1998 579.6 52.7998 589 52.7998C598.1 52.7998 604.5 60.1998 604.5 70.5998C604.4 81.2998 597.9 88.6998 588.6 88.6998Z" fill="#001C54"/>
<path d="M619.9 56.7999V68.2999H633.3V71.5999H619.9V87.9999H615.8V53.3999H634.2V56.7999H619.9Z" fill="#001C54"/>
<path d="M448.4 61.8002C448.4 56.5002 452.7 52.7002 458.9 52.7002C465.2 52.7002 468.3 56.0002 468.6 56.3002L466.6 58.8002C465.8 58.2002 463 56.2002 459.2 56.2002C454.8 56.2002 452.3 58.5002 452.3 61.6002C452.3 63.1002 452.9 64.2002 453.9 65.1002C455.1 66.2002 456.8 67.0002 458.7 67.8002C461 68.9002 464.2 70.1002 466.3 72.3002C467.8 73.8002 468.9 75.8002 468.9 78.5002C468.9 84.3002 464.9 88.7002 457.7 88.7002C451.6 88.7002 447.7 85.3002 447.3 85.0002L449.2 82.2002C450.2 82.9002 454 85.2002 457.6 85.2002C462.8 85.2002 464.8 82.3002 464.8 78.9002C464.8 77.3002 464.1 76.0002 463 75.0002C461.4 73.4002 458.9 72.4002 456.6 71.3002C454.3 70.2002 452 69.1002 450.4 67.4002C449.5 66.4002 448.4 64.6002 448.4 61.8002Z" fill="#001C54"/>
</g>
<defs>
<clipPath id="clip0_408_162">
<rect width="800" height="251" fill="white"/>
</clipPath>
</defs>
</svg>
