<svg width="560" height="173" viewBox="0 0 560 173" fill="none" xmlns="http://www.w3.org/2000/svg">
<path d="M300.066 48.329C303.556 42.2892 310.535 39.135 317.381 39.0679C323.555 38.6653 330.601 39.6719 334.963 44.5709C332.749 47.4566 330.668 50.4765 328.454 53.3622C325.971 50.5436 323.957 46.5842 319.998 45.7789C316.106 44.5709 311.139 46.5842 310.133 50.8121C308.455 57.4559 309.462 64.4353 309.26 71.2133H322.011V78.7967H309.26C309.26 90.2053 309.26 101.681 309.26 113.09C309.193 116.311 309.73 119.532 310.334 122.686C313.22 124.028 316.374 124.7 319.595 124.767C319.595 125.572 319.595 127.115 319.528 127.921C309.126 127.25 298.724 127.048 288.322 127.921C288.322 127.25 288.322 125.908 288.322 125.236C291.611 124.632 295.704 123.156 295.839 119.197C297.114 105.775 296.241 92.2186 296.51 78.7967C293.959 78.7967 291.409 78.7967 288.926 78.7967C288.926 77.6558 288.993 76.515 288.993 75.3741C291.544 74.1662 294.094 72.8911 296.577 71.4818C296.443 63.6971 295.973 55.3084 300.066 48.329Z" fill="#8C1515"/>
<path d="M487.704 39.0679C480.993 40.6114 474.148 41.9536 467.236 42.222C467.169 42.826 467.034 44.1011 466.967 44.7722C469.517 45.5775 473.745 45.3762 473.947 48.933C474.953 56.1808 474.282 63.6299 474.483 70.9448C464.551 69.2671 453.478 69.3342 445.09 75.5083C435.828 81.9508 432.674 94.0305 433.614 104.768C434.151 113.09 438.312 121.68 445.895 125.706C454.888 130.672 466.43 129.666 474.819 123.961C474.886 125.639 474.886 127.317 474.953 128.994C481.463 127.317 488.174 126.377 494.885 126.042V123.156C485.355 121.545 488.04 117.116 487.368 109.667C487.234 86.1116 486.832 62.5562 487.704 39.0679ZM463.008 76.9847C467.034 76.9176 471.128 78.1927 474.416 80.4744C474.416 93.1581 474.416 105.775 474.416 118.458C467.37 121.68 457.84 121.478 452.27 115.505C447.506 110.405 446.7 103.023 447.17 96.3793C447.64 90.3395 448.915 83.4272 454.149 79.7362C456.834 77.8571 459.921 76.9847 463.008 76.9847Z" fill="#8C1515"/>
<path d="M87.5307 46.7857C95.5168 46.3159 103.57 46.8528 111.422 47.9265C110.952 53.5637 111.019 59.2009 111.422 64.8381C110.683 64.8381 109.14 64.8381 108.335 64.8381C107.731 61.3484 107.127 57.0534 103.369 55.5099C97.7985 53.1611 91.2889 52.9597 85.5175 54.6375C78.0012 56.8521 76.7261 67.9251 82.3633 72.8241C89.3427 78.9311 97.9327 82.9577 105.113 88.9304C116.388 97.8559 114.911 118.727 101.557 124.968C90.3493 130.136 77.1288 128.86 65.5189 125.572C65.586 120.002 65.3846 114.432 65.1162 108.862C65.9215 108.862 67.6664 108.795 68.4717 108.795C69.0757 112.284 69.6125 116.579 73.1693 118.391C79.5447 121.948 87.7321 122.217 94.3088 119.197C102.563 114.633 101.02 101.48 93.3022 97.0506C86.5912 91.8832 78.9407 88.1251 72.7667 82.2866C66.1229 75.9783 65.2504 64.8381 69.6796 56.8521C73.3036 50.5438 80.5514 47.3897 87.5307 46.7857Z" fill="#8C1515"/>
<path d="M134.977 58.731C135.581 58.7981 136.856 58.7981 137.527 58.8652C137.527 63.0931 137.527 67.321 137.527 71.5489H156.922V78.7967H137.527C137.594 88.9973 137.393 99.1979 137.661 109.399C137.93 113.291 138.064 118.123 141.688 120.472C146.251 123.156 151.754 121.478 156.318 119.733C157.727 123.156 154.17 125.102 151.687 126.511C145.849 129.33 138.735 129.666 132.695 127.317C127.528 125.371 125.045 119.733 124.776 114.566C124.172 102.621 124.776 90.7421 124.843 78.7967H117.26C117.26 77.9914 117.26 77.186 117.193 76.4478C125.38 73.3608 130.95 66.2472 134.977 58.731Z" fill="#8C1515"/>
<path d="M186.92 69.6028C178.195 69.5357 169.337 73.8307 166.518 82.622C167.257 83.0918 168.867 83.8971 169.605 84.3669C172.961 78.4613 180.813 75.3742 186.987 78.7968C191.819 81.0114 192.221 86.9171 192.154 91.6147C184.504 94.0978 176.652 95.9768 169.404 99.6007C160.747 104.164 159.673 117.116 165.847 124.096C173.162 130.807 185.309 129.733 192.49 123.357C194.704 127.72 199.872 129.33 204.368 128.122C208.327 127.384 210.945 124.096 213.495 121.277C213.025 120.74 212.153 119.734 211.683 119.197C210.072 119.599 208.193 120.874 206.65 119.666C204.569 118.257 204.838 115.371 204.704 113.224C204.838 103.829 205.375 94.3662 204.905 84.9709C204.636 80.0719 202.489 75.1058 198.127 72.5556C194.838 70.6095 190.879 69.6699 186.92 69.6028ZM192.087 98.9967C192.154 105.372 192.087 111.68 192.154 118.056C188.06 119.868 183.296 121.545 179.001 119.465C173.766 116.647 173.967 108.325 178.33 104.835C182.423 101.882 187.322 100.54 192.087 98.9967Z" fill="#8C1515"/>
<path d="M354.089 69.8712C347.714 69.9383 341.07 71.549 336.104 75.7097C328.655 81.7496 325.434 91.6818 325.769 101.01C325.702 108.996 328.252 117.519 334.493 122.821C341.943 129.33 352.747 129.934 362.008 127.988C371.806 125.84 379.121 117.318 381.202 107.721C383.416 97.7887 382.477 86.2459 375.632 78.1928C370.397 72.0187 361.941 69.6699 354.089 69.8712ZM354.224 76.6493C357.646 76.7164 361.069 78.1257 363.283 80.8772C367.243 85.7761 368.317 92.3529 368.652 98.4598C368.719 105.171 367.847 112.351 363.619 117.787C359.458 123.156 350.6 123.76 345.768 118.928C342.144 115.573 340.735 110.54 339.929 105.775C339.057 99.4665 339.258 92.9569 341.272 86.917C342.681 82.8904 345.365 78.7968 349.593 77.3875C351.07 76.8506 352.613 76.5822 354.224 76.6493Z" fill="#8C1515"/>
<path d="M218.193 73.6963C224.971 73.5621 231.883 72.891 238.124 70.0724C238.326 71.683 238.527 73.2936 238.661 74.9043C245.842 70.2066 255.17 68.3947 263.358 71.2804C269.263 73.2265 273.357 79.0651 273.894 85.172C275.102 96.7819 273.357 108.593 274.9 120.203C275.102 123.827 278.994 124.699 281.88 125.303C281.88 125.975 281.88 127.317 281.88 127.988C272.216 127.25 252.956 127.921 252.956 127.921L252.889 125.169C252.889 125.169 259.868 123.223 260.271 121.21C261.881 112.553 261.479 103.627 261.411 94.9029C261.076 89.6683 261.21 83.0916 256.244 79.9375C250.875 76.8504 244.299 78.2597 238.796 80.273C238.863 91.6145 238.796 103.023 238.796 114.365C238.93 117.385 238.728 120.874 240.742 123.357C242.419 124.498 244.5 124.699 246.379 125.236C246.379 125.907 246.379 127.317 246.379 127.988C236.849 127.384 227.387 126.981 217.857 127.988C217.857 127.317 217.857 125.975 217.857 125.303C220.743 124.632 224.568 123.693 225.105 120.203C226.447 111.814 225.441 103.292 225.709 94.8358C225.575 90.0039 226.112 85.172 225.239 80.4072C224.568 77.186 220.609 77.3202 218.126 76.7162C218.193 75.978 218.193 74.4345 218.193 73.6963Z" fill="#8C1515"/>
<path d="M387.711 73.4278C394.489 73.3607 401.267 72.4212 407.777 70.2065L407.978 75.1726C414.488 69.9381 424.353 68.5959 431.265 73.7633L424.017 84.8364C420.662 79.6019 413.749 78.3268 408.314 81.0112C408.314 81.0112 408.246 103.963 408.381 115.438C408.649 117.988 408.246 121.344 410.662 123.022C413.011 124.364 415.763 124.297 418.38 124.699C418.38 125.505 418.38 127.115 418.38 127.854C407.978 127.182 397.509 126.981 387.107 127.854V124.699C390.462 124.095 393.952 122.955 394.489 120.941C395.965 115.975 395.227 110.808 395.361 105.707C395.227 97.5872 395.63 89.534 395.16 81.4138C395.093 77.4544 390.664 77.1188 387.778 76.5819C387.711 75.5753 387.711 74.4344 387.711 73.4278Z" fill="#8C1515"/>
</svg>
